# xmcd CD database file
#
# Track frame offsets:
#	150
#	14771
#	32755
#	46131
#	61245
#	78068
#	94645
#	106080
#	129577
#	142657
#	161233
#	176083
#	191397
#	205122
#	220253
#	232536
#
# Disc length: 3277 seconds
#
# Revision: 2
# Processed by: cddbd v1.5.2PL0 Copyright (c) Steve Scherf et al.
# Submitted via: CDex 1.51
#
DISCID=c50ccb10
DTITLE=Louis Armstrong - Vol.06 - Don't Forget To Mess Around
DYEAR=1900
DGENRE=Jazz
TTITLE0=Don't Forget To Mess Around
TTITLE1=Cabaret
TTITLE2=High Society
TTITLE3=It's All In The Game
TTITLE4=My Bucket Got A Hole In It
TTITLE5=If I Could Be With You One Hour Night
TTITLE6=Hello Dolly
TTITLE7=Long Gone
TTITLE8=That's Plenty
TTITLE9=You Can Depend On Me
TTITLE10=Basin Street Blues
TTITLE11=No-One Else Bot You
TTITLE12=Beau Koo Jack
TTITLE13=save It, Pretty Mama
TTITLE14=Weather Bird
TTITLE15=Sittin' In The Sun  (Countin' My Money)
EXTD=
EXTT0=
EXTT1=
EXTT2=
EXTT3=
EXTT4=
EXTT5=
EXTT6=
EXTT7=
EXTT8=
EXTT9=
EXTT10=
EXTT11=
EXTT12=
EXTT13=
EXTT14=
EXTT15=
PLAYORDER=
